# Blender 4.2.1 LTS
# www.blender.org
mtllib PlayGround.mtl
o Cube
v 20.000000 -20.000000 4.000000
v 20.000000 -20.000000 0.000000
v -20.000000 -20.000000 4.000000
v -20.000000 -20.000000 0.000000
v 20.000000 20.000000 4.000000
v 20.000000 20.000000 0.000000
v -20.000000 20.000000 4.000000
v -20.000000 20.000000 0.000000
v -16.000000 20.000000 0.000000
v -16.000000 -20.000000 4.000000
v -16.000000 20.000000 4.000000
v -16.000000 -20.000000 0.000000
v 16.400000 20.000000 4.000000
v 16.400000 -20.000000 0.000000
v 16.400000 20.000000 0.000000
v 16.400000 -20.000000 4.000000
v 20.000000 16.000000 0.000000
v -20.000000 16.000000 4.000000
v -20.000000 16.000000 0.000000
v 20.000000 16.000000 4.000000
v -16.000000 16.000000 0.000000
v -16.000000 16.000000 4.000000
v 16.400000 16.000000 4.000000
v 16.400000 16.000000 0.000000
v -20.000000 -16.400000 0.000000
v 20.000000 -16.400000 4.000000
v -16.000000 -16.400000 4.000000
v 16.400000 -16.400000 4.000000
v 20.000000 -16.400000 0.000000
v -20.000000 -16.400000 4.000000
v -16.000000 -16.400000 0.000000
v 16.400000 -16.400000 0.000000
v 16.400000 16.000000 0.000000
v -16.000000 16.000000 0.000000
v -16.000000 -16.400000 0.000000
v 16.400000 -16.400000 0.000000
v 16.400000 16.000000 4.000000
v -16.000000 16.000000 4.000000
v 16.400000 16.000000 0.000000
v -16.000000 16.000000 0.000000
vn -0.0000 -0.0000 1.0000
vn -1.0000 -0.0000 -0.0000
vn -0.0000 1.0000 -0.0000
vn -0.0000 -0.0000 -1.0000
vn -0.0000 -1.0000 -0.0000
vn 1.0000 -0.0000 -0.0000
vt 0.850000 0.725000
vt 0.875000 0.725000
vt 0.875000 0.750000
vt 0.850000 0.750000
vt 0.375000 0.975000
vt 0.625000 0.975000
vt 0.625000 1.000000
vt 0.375000 1.000000
vt 0.375000 0.227500
vt 0.625000 0.227500
vt 0.625000 0.250000
vt 0.375000 0.250000
vt 0.352500 0.725000
vt 0.375000 0.725000
vt 0.375000 0.750000
vt 0.352500 0.750000
vt 0.625000 0.725000
vt 0.625000 0.750000
vt 0.375000 0.477500
vt 0.625000 0.477500
vt 0.625000 0.500000
vt 0.375000 0.500000
vt 0.375000 0.522500
vt 0.625000 0.522500
vt 0.352500 0.522500
vt 0.375000 0.000000
vt 0.625000 0.000000
vt 0.625000 0.025000
vt 0.375000 0.025000
vt 0.850000 0.522500
vt 0.875000 0.522500
vt 0.850000 0.500000
vt 0.875000 0.500000
vt 0.352500 0.500000
vt 0.125000 0.500000
vt 0.150000 0.500000
vt 0.150000 0.522500
vt 0.125000 0.522500
vt 0.647500 0.500000
vt 0.647500 0.522500
vt 0.647500 0.725000
vt 0.150000 0.725000
vt 0.125000 0.725000
vt 0.625000 0.275000
vt 0.375000 0.275000
vt 0.150000 0.750000
vt 0.125000 0.750000
vt 0.375000 0.772500
vt 0.625000 0.772500
vt 0.647500 0.750000
vt 0.000000 0.000000
s 0
usemtl PlayGroundMaterial
f 22/1/1 11/2/1 7/3/1 18/4/1
f 19/5/2 18/6/2 7/7/2 8/8/2
f 15/9/3 13/10/3 5/11/3 6/12/3
f 31/13/4 12/14/4 4/15/4 25/16/4
f 12/14/5 10/17/5 3/18/5 4/15/5
f 29/19/6 26/20/6 1/21/6 2/22/6
f 14/23/5 16/24/5 10/17/5 12/14/5
f 32/25/4 14/23/4 12/14/4 31/13/4
f 8/26/3 7/27/3 11/28/3 9/29/3
f 23/30/1 13/31/1 11/2/1 22/1/1
f 20/32/1 5/33/1 13/31/1 23/30/1
f 29/34/4 2/22/4 14/23/4 32/25/4
f 2/22/5 1/21/5 16/24/5 14/23/5
f 9/29/3 11/28/3 13/10/3 15/9/3
f 6/35/4 17/36/4 24/37/4 15/38/4
f 26/39/1 20/32/1 23/30/1 28/40/1
f 22/1/6 27/41/6 35/41/6 34/1/6
f 15/38/4 24/37/4 21/42/4 9/43/4
f 6/12/6 5/11/6 20/44/6 17/45/6
f 9/43/4 21/42/4 19/46/4 8/47/4
f 25/48/2 30/49/2 18/6/2 19/5/2
f 27/41/1 22/1/1 18/4/1 30/50/1
f 10/17/1 27/41/1 30/50/1 3/18/1
f 4/15/2 3/18/2 30/49/2 25/48/2
f 16/24/1 28/40/1 27/41/1 10/17/1
f 1/21/1 26/39/1 28/40/1 16/24/1
f 17/36/4 29/34/4 32/25/4 24/37/4
f 17/45/6 20/44/6 26/20/6 29/19/6
f 21/42/4 31/13/4 25/16/4 19/46/4
f 33/30/1 23/30/1 37/30/1 39/30/1
f 28/40/2 23/30/2 33/30/2 36/40/2
f 27/41/3 28/40/3 36/40/3 35/41/3
f 37/30/5 38/1/5 40/1/5 39/30/5
f 23/30/1 22/1/1 38/1/1 37/30/1
f 34/51/1 33/51/1 39/51/1 40/51/1
f 22/1/1 34/1/1 40/1/1 38/1/1
usemtl GroundMaterial
f 24/37/4 32/25/4 31/13/4 21/42/4
